<?xml version="1.0" encoding="UTF-8"?>
<svg id="Camada_2" data-name="Camada 2" xmlns="http://www.w3.org/2000/svg" viewBox="0 0 1040.47 1037.51">
  <defs>
    <style>
      .cls-1 {
        fill: #ff9e27;
      }
    </style>
  </defs>
  <g id="Camada_1-2" data-name="Camada 1">
    <g id="Camada_2-2" data-name="Camada 2">
      <path class="cls-1" d="m412.52,1037.51c-6.07.11-10.27-3.69-10.59-9.57-.36-6.5,3.8-10.95,10.15-10.87,5.88.07,11.17,5.15,11.09,10.64-.08,5.23-4.93,9.7-10.64,9.8Z"/>
      <path class="cls-1" d="m397.62,299.67c-18.81-.19-33.61-15.15-33.4-33.77.2-18.15,15.74-33.55,34-33.71,18.44-.16,34.18,15.97,33.89,34.71-.29,18.43-15.58,32.96-34.49,32.77Z"/>
      <path class="cls-1" d="m506.85,859.62c-18.61.04-33.82-14.95-33.94-33.46-.12-18.9,15.41-34.47,34.29-34.37,18.53.1,33.21,15.2,33.16,34.11-.05,18.71-14.92,33.68-33.51,33.72Z"/>
      <path class="cls-1" d="m712.35,362.07c-19.16.03-34.48-14.98-34.49-33.81,0-18.36,15.19-33.09,34.03-32.98,19.36.12,34.15,15.14,33.82,34.34-.32,18.46-14.67,32.42-33.36,32.45Z"/>
      <path class="cls-1" d="m619.17,765.54c18.61.07,33.03,14.37,33.09,32.81.07,18.99-15.67,35.12-33.88,34.72-17.9-.4-33.89-16.78-33.58-34.4.32-18.37,15.7-33.2,34.37-33.13Z"/>
      <path class="cls-1" d="m219.57,565.79c-19.43-.16-33.67-14.83-33.41-34.41.24-18.27,15.72-32.96,34.4-32.64,18.47.31,33.29,15.67,33.03,34.21-.27,18.84-14.94,33.01-34.02,32.85Z"/>
      <path class="cls-1" d="m796.3,565.79c-18.31-.24-33.64-15.79-33.39-33.87.25-17.87,16.31-33.94,33.93-33.94,18.03,0,33.83,16.55,33.48,35.04-.36,18.83-15.08,33.01-34.01,32.76Z"/>
      <path class="cls-1" d="m304.68,703.22c18.83.07,33.36,14.74,33.25,33.58-.11,18.44-15.35,33.56-33.75,33.49-18.52-.08-33.8-15.2-33.8-33.43,0-19.18,14.82-33.7,34.3-33.63Z"/>
      <path class="cls-1" d="m428.05,799.39c-.19,18.16-16.66,34.26-34.8,34.02-17.64-.24-32.96-16.49-32.75-34.74.21-18.17,15.78-33.25,34.2-33.11,18.45.13,33.54,15.45,33.35,33.83Z"/>
      <path class="cls-1" d="m204.24,642.89c.06-18.53,15.09-33.38,33.85-33.42,18.56-.05,33.96,15.28,33.71,33.55-.25,18.12-15.83,33.58-34.06,33.79-18.05.21-33.56-15.49-33.5-33.92Z"/>
      <path class="cls-1" d="m804.46,644.02c-.31,18.24-15.26,32.94-33.37,32.8-18.7-.14-34.25-16.15-33.84-34.84.41-18.55,15.8-32.98,34.64-32.5,18.66.48,32.89,15.56,32.57,34.54Z"/>
      <path class="cls-1" d="m648.57,265.99c-.1,18.82-14.83,33.65-33.46,33.68-18.57.03-33.46-15.01-33.35-33.68.11-18.78,15.84-34.1,34.7-33.8,18.14.29,32.21,15.1,32.11,33.81Z"/>
      <path class="cls-1" d="m237.72,389.45c18.79.06,33.97,14.79,34.07,33.07.1,18.36-15.06,33.29-33.78,33.26-18.94-.03-33.72-14.54-33.75-33.13-.03-18.84,14.5-33.26,33.46-33.2Z"/>
      <path class="cls-1" d="m506.55,215.59c18.8-.15,33.58,14.4,33.79,33.27.2,18.62-14.8,33.9-33.27,33.87-18.69-.02-34.19-15.17-34.12-33.33.07-18.48,15.16-33.66,33.61-33.82Z"/>
      <path class="cls-1" d="m709.43,703.23c19.13.09,33.23,14.52,32.97,33.76-.26,19.05-14.9,33.33-33.88,33.02-18.61-.3-33.69-15.62-33.43-33.97.26-18.61,15.21-32.89,34.34-32.8Z"/>
      <path class="cls-1" d="m267.75,328.4c.16-19.36,14.28-33.29,33.57-33.13,19.19.16,33.45,14.55,33.28,33.58-.17,19.13-14.64,33.37-33.69,33.18-19.21-.2-33.32-14.51-33.16-33.63Z"/>
      <path class="cls-1" d="m771.44,389.46c19.12.03,33.21,14.38,33.03,33.65-.18,18.61-14.4,32.67-33.05,32.67-18.59,0-34.08-15.06-34.17-33.23-.09-18.02,15.51-33.13,34.19-33.1Z"/>
      <path class="cls-1" d="m587.6,151.73c11.25-.18,20.38,8.52,20.7,19.72.32,11.43-8.82,21.38-20.06,21.83-10.86.43-20.68-9.58-20.73-21.12-.05-11.14,8.91-20.24,20.09-20.42Z"/>
      <path class="cls-1" d="m816.32,711.68c11.22.28,20.38,10.37,19.89,21.91-.47,11.11-10.12,20.22-20.91,19.76-11.36-.49-20.47-10.49-19.98-21.94.47-11.13,9.92-20,21.01-19.73Z"/>
      <path class="cls-1" d="m310.91,198.24c10.77-.02,20.65,9.66,20.58,20.17-.08,11.3-9.63,20.97-20.86,21.12-11.16.15-20.22-8.82-20.3-20.08-.08-11.4,9.42-21.18,20.58-21.21Z"/>
      <path class="cls-1" d="m823.7,345.81c-11.15.07-20.78-8.98-20.93-19.67-.16-10.74,10.04-20.97,21.06-21.13,11.04-.16,20.32,8.88,20.53,20,.22,11.63-8.82,20.72-20.66,20.79Z"/>
      <path class="cls-1" d="m209.83,747.81c-12.27.16-21.5-8.35-21.45-19.78.05-10.91,9.1-20.02,20.27-20.41,11.38-.4,21.24,8.93,21.39,20.25.15,11.2-8.55,19.79-20.21,19.94Z"/>
      <path class="cls-1" d="m468.29,166.32c-.06,11.33-8.98,20.28-20.25,20.32-11.43.04-20.55-8.78-20.66-19.96-.11-11.38,9.45-20.84,21.03-20.85,11.27,0,19.93,8.92,19.87,20.49Z"/>
      <path class="cls-1" d="m872.73,477.61c-11.41.05-20.1-8.6-20.19-20.12-.09-11.52,9.47-21.13,20.82-20.93,10.76.19,20.05,10.01,19.8,20.93-.26,11.28-9.18,20.06-20.44,20.12Z"/>
      <path class="cls-1" d="m151.13,573.63c10.91.05,20.4,9.58,20.43,20.5.02,10.91-9.73,20.83-20.29,20.61-10.91-.22-20.27-9.67-20.47-20.65-.2-10.89,9.37-20.51,20.33-20.46Z"/>
      <path class="cls-1" d="m156.44,472.1c-11.52-.09-20.1-8.61-20.15-20-.05-11.75,8.99-20.71,20.76-20.57,11.13.14,20.27,9.19,20.35,20.15.08,11.59-9.07,20.51-20.95,20.41Z"/>
      <path class="cls-1" d="m738.91,223.36c-.6,11.43-9.91,20.2-20.85,19.63-11.36-.59-20.37-10.8-19.54-22.15.8-11.03,10.45-19.49,21.6-18.93,11.13.56,19.4,9.99,18.79,21.46Z"/>
      <path class="cls-1" d="m438.74,871.17c10.99.05,20.77,9.29,20.98,19.81.21,10.73-10.06,20.44-21.51,20.33-11.32-.11-20.24-9.12-20.04-20.27.19-11.09,9.33-19.92,20.57-19.87Z"/>
      <path class="cls-1" d="m733.91,833.5c-.33,11.22-9.49,20.04-20.6,19.86-11.39-.19-20.42-9.93-19.97-21.55.42-10.93,10.12-19.8,21.15-19.34,11.11.46,19.76,9.83,19.43,21.03Z"/>
      <path class="cls-1" d="m584.76,907.67c-11.74-.03-20.26-8.42-20.34-20.02-.07-11.13,9.03-20.37,20.19-20.5,11.47-.14,21.41,9.69,21.04,20.79-.38,11.37-9.27,19.76-20.89,19.73Z"/>
      <path class="cls-1" d="m305.19,849.71c-10.76-.06-20.34-9.71-20.28-20.43.07-10.75,9.55-20.01,20.58-20.1,11.47-.09,20.53,8.58,20.59,19.73.06,11.46-9.38,20.86-20.9,20.8Z"/>
      <path class="cls-1" d="m188,319.07c.19-11.71,9.2-19.97,21.5-19.7,11.73.26,19.36,8.53,19.06,20.68-.28,11.35-9.23,19.79-20.68,19.49-11.35-.3-20.05-9.26-19.88-20.48Z"/>
      <path class="cls-1" d="m896.46,601.48c.08,11.74-8.24,20.37-19.72,20.48-11.62.11-20.67-8.35-20.88-19.51-.22-11.75,8.7-20.89,20.52-21.02,11.56-.13,20,8.3,20.08,20.05Z"/>
      <path class="cls-1" d="m100.45,660.21c7.77-.24,15.54,7.23,15.74,15.13.2,7.75-6.49,14.31-14.75,14.45-8.07.14-14.66-6.12-14.97-14.23-.31-7.98,6.18-15.11,13.98-15.35Z"/>
      <path class="cls-1" d="m342.96,932.02c-.18,7.95-6.89,14.59-14.75,14.59-8.32,0-15.38-7.24-15.02-15.4.39-8.7,6.98-14.63,15.85-14.26,8.27.35,14.11,6.67,13.91,15.06Z"/>
      <path class="cls-1" d="m359.56,84.81c8.09.16,14.93,7.6,14.52,15.8-.4,7.95-6.95,13.83-15.29,13.71-8.61-.12-14.93-6.88-14.48-15.47.41-7.76,7.39-14.19,15.24-14.04Z"/>
      <path class="cls-1" d="m225.33,190.24c.06,8.19-7.04,15.34-15.18,15.29-7.73-.05-14.18-6.72-14.36-14.85-.19-8.43,5.61-14.66,13.89-14.93,8.71-.28,15.59,6.09,15.65,14.49Z"/>
      <path class="cls-1" d="m817.86,859.59c-8.36.03-15.33-6.97-15.06-15.1.25-7.55,7.39-14.47,14.97-14.51,8.02-.04,14.85,7.17,14.73,15.53-.12,8.33-6.07,14.05-14.64,14.08Z"/>
      <path class="cls-1" d="m961.13,549.54c-8.19.1-15.14-6.9-15.07-15.18.07-7.84,6.68-14.45,14.58-14.59,8.05-.14,15.26,7.08,15.19,15.22-.06,7.81-6.77,14.45-14.71,14.55Z"/>
      <path class="cls-1" d="m952.54,365.27c-.24,8.47-7.13,14.86-15.55,14.42-7.77-.4-14.37-7.48-14.08-15.1.3-7.88,8.04-15,15.88-14.62,7.7.37,13.98,7.35,13.75,15.3Z"/>
      <path class="cls-1" d="m940,706.6c-.23,8.03-6.85,14.59-14.74,14.62-8.46.03-15.26-6.86-15.02-15.23.24-8.53,7.22-15.02,15.62-14.53,7.97.47,14.36,7.31,14.14,15.13Z"/>
      <path class="cls-1" d="m187.08,806.96c8.42.08,15.17,7.03,14.83,15.25-.31,7.62-7.53,14.49-15.04,14.31-8.2-.2-15.04-7.45-14.71-15.58.34-8.14,6.65-14.06,14.91-13.97Z"/>
      <path class="cls-1" d="m700.65,104.71c7.45-.2,14.6,6.63,15.07,14.41.48,7.97-6.51,15.01-15.04,15.13-8.69.13-14.57-5.43-14.7-13.89-.13-8.4,6.45-15.42,14.67-15.64Z"/>
      <path class="cls-1" d="m669.32,950.76c-7.68.02-14.68-6.93-14.73-14.63-.06-7.83,6.59-14.58,14.51-14.74,8.21-.16,15.48,6.99,15.25,15-.21,7.59-7.28,14.34-15.03,14.37Z"/>
      <path class="cls-1" d="m827.87,213.01c.53-8.27,7.24-13.96,15.59-13.22,7.61.67,14.31,8.23,13.91,15.72-.39,7.33-8.14,14.23-15.71,13.97-8.02-.27-14.35-7.83-13.79-16.47Z"/>
      <path class="cls-1" d="m128.05,333.46c.17,7.91-6.19,14.93-13.91,15.36-7.62.42-15.36-7.14-15.45-15.09-.08-7.92,6.44-14.39,14.54-14.42,8.2-.03,14.64,6.12,14.81,14.15Z"/>
      <path class="cls-1" d="m535.63,59.83c8.37-.12,14.37,5.2,14.66,12.97.32,8.73-5.98,15.86-14.24,16.1-7.62.22-14.8-6.72-14.98-14.48-.18-7.89,6.39-14.47,14.56-14.58Z"/>
      <path class="cls-1" d="m502.45,980.57c-7.86.07-14.46-6.56-14.45-14.51,0-7.76,6.56-14.47,14.39-14.73,7.81-.26,15.06,6.31,15.29,13.87.23,7.62-7.38,15.31-15.22,15.38Z"/>
      <path class="cls-1" d="m67.98,486.33c7.93-.19,14.59,6.39,14.66,14.5.08,8.46-5.97,14.98-13.98,15.06-8.15.08-14.5-6.15-14.7-14.43-.2-8.22,6.03-14.94,14.02-15.14Z"/>
      <path class="cls-1" d="m0,410.13c-.03-6.32,4.09-10.55,10.36-10.65,6.04-.09,11.01,4.41,11.16,10.12.15,6.03-5.11,11.32-11.29,11.33-6.19.01-10.2-4.23-10.23-10.8Z"/>
      <path class="cls-1" d="m80.65,809.91c-6.14-.53-10.54-5.52-10.05-11.38.48-5.82,5.69-10.21,11.69-9.85,6.03.36,10.37,5.37,9.9,11.44-.45,5.92-5.62,10.3-11.54,9.79Z"/>
      <path class="cls-1" d="m106.61,229.33c-.23,6.2-4.89,10.7-10.83,10.45-6.01-.25-10.68-5.15-10.48-10.99.19-5.61,5.52-10.67,11.14-10.6,5.88.08,10.39,5.02,10.16,11.14Z"/>
      <path class="cls-1" d="m246.62,85.38c-.22,6.12-4.91,10.61-10.96,10.48-6.05-.13-10.62-5.01-10.34-11.04.28-5.97,5.17-10.64,11.1-10.6,5.88.04,10.42,5,10.2,11.17Z"/>
      <path class="cls-1" d="m1040.46,430.52c-.14,5.63-5.3,10.79-10.84,10.84-6.04.06-11.57-5.66-11.13-11.52.44-5.82,5.48-10.31,11.39-10.14,5.99.17,10.73,5.01,10.58,10.82Z"/>
      <path class="cls-1" d="m950.64,249.78c-6.49.15-10.46-3.74-10.54-10.32-.08-6.66,3.71-10.96,9.9-11.22,5.67-.24,10.69,4.62,10.94,10.58.25,5.96-4.32,10.82-10.3,10.96Z"/>
      <path class="cls-1" d="m956.6,816.69c.22,5.97-4.24,11.09-9.92,11.38-5.52.28-10.91-4.6-11.3-10.23-.43-6.31,4.38-11.74,10.54-11.89,5.48-.14,10.46,4.87,10.68,10.75Z"/>
      <path class="cls-1" d="m1031.98,628.46c.02,5.57-5.53,10.97-11.04,10.73-5.05-.23-10.03-5.38-10.23-10.59-.24-6.18,4.37-11.08,10.39-11.04,5.71.04,10.86,5.2,10.88,10.9Z"/>
      <path class="cls-1" d="m230.42,953.1c-.21,6.72-4.04,10.26-10.75,9.95-6.48-.3-10.27-4.42-10.06-10.92.2-6.2,4.83-10.55,10.91-10.25,6.07.3,10.1,4.87,9.9,11.22Z"/>
      <path class="cls-1" d="m423.49,0c5.11-.13,10.5,5.45,10.67,11.04.18,5.89-4.38,10.56-10.51,10.76-5.38.18-10.51-4.27-10.88-9.42-.37-5.22,5.72-12.26,10.71-12.38Z"/>
      <path class="cls-1" d="m1.9,616.07c-.17-5.98,4.23-10.85,10.17-11.26,6.19-.42,10.86,3.81,11.11,10.04.22,5.71-4.51,10.94-10.25,11.32-6.03.4-10.85-4.02-11.02-10.11Z"/>
      <path class="cls-1" d="m818.49,103.11c.13,6.99-3.37,10.78-9.98,10.83-6.83.05-10.52-3.53-10.59-10.29-.07-6.55,3.94-11.02,10.06-11.2,6.14-.19,10.39,4.13,10.51,10.67Z"/>
      <path class="cls-1" d="m609.07,1037.5c-6.64.17-10.75-3.54-11-9.93-.26-6.82,3.31-10.58,10.03-10.58,6.32,0,11.06,4.1,11.48,9.91.42,5.83-4.15,10.44-10.51,10.6Z"/>
      <path class="cls-1" d="m629.53,28.27c-5.99-.2-9.62-4.11-9.64-10.4-.02-6.06,4.8-10.93,10.67-10.77,5.88.16,10.89,5.45,10.54,11.12-.36,5.8-5.47,10.25-11.56,10.05Z"/>
      <path class="cls-1" d="m806.63,953.35c.04,6.36-4.12,10.43-10.6,10.37-6.68-.06-10.62-3.93-10.57-10.38.05-6.39,4.2-10.53,10.56-10.51,6.38.02,10.58,4.18,10.62,10.52Z"/>
    </g>
  </g>
</svg>